<?xml version="1.0" encoding="UTF-8" standalone="no"?>
<!-- Created with Inkscape (http://www.inkscape.org/) -->

<svg
   width="500"
   height="500"
   viewBox="0 0 132.29167 132.29167"
   version="1.1"
   id="svg1"
   xml:space="preserve"
   inkscape:version="1.4.2 (ebf0e940, 2025-05-08)"
   sodipodi:docname="roots-tall.svg"
   inkscape:export-filename="roots-sandbox.png"
   inkscape:export-xdpi="96"
   inkscape:export-ydpi="96"
   xmlns:inkscape="http://www.inkscape.org/namespaces/inkscape"
   xmlns:sodipodi="http://sodipodi.sourceforge.net/DTD/sodipodi-0.dtd"
   xmlns="http://www.w3.org/2000/svg"
   xmlns:svg="http://www.w3.org/2000/svg"><sodipodi:namedview
     id="namedview1"
     pagecolor="#ffffff"
     bordercolor="#000000"
     borderopacity="0.25"
     inkscape:showpageshadow="2"
     inkscape:pageopacity="0.0"
     inkscape:pagecheckerboard="0"
     inkscape:deskcolor="#d1d1d1"
     inkscape:document-units="mm"
     inkscape:zoom="1.1479657"
     inkscape:cx="213.42101"
     inkscape:cy="243.47418"
     inkscape:window-width="1512"
     inkscape:window-height="820"
     inkscape:window-x="0"
     inkscape:window-y="38"
     inkscape:window-maximized="0"
     inkscape:current-layer="layer2" /><defs
     id="defs1" /><g
     inkscape:groupmode="layer"
     id="layer2"
     inkscape:label="Layer 2"><path
       id="path1"
       style="fill:#004c46;fill-opacity:1;fill-rule:nonzero;stroke:none;stroke-width:0.265;stroke-linecap:butt;stroke-linejoin:round;stroke-miterlimit:4;stroke-dasharray:none;stroke-dashoffset:0;stroke-opacity:1;paint-order:normal"
       d="m 68.215654,0.88067059 -4.13527,0.11587705 -3.634461,0.36682726 0.135075,6.4585441 0.0975,5.605249 -0.07806,5.510694 0.232028,5.25601 -0.232028,3.400826 0.309025,5.101497 0.175678,3.130119 0.183019,3.997564 0.02733,3.818419 0.04961,3.951697 -0.645439,5.470467 -2.565218,4.507735 -2.96416,2.272213 -4.19871,2.0252 -2.667021,1.531172 -2.173511,1.729094 -2.766239,1.43247 -4.544426,1.28416 -2.618444,0.148311 -2.667021,-0.148311 -2.667537,-0.592729 -3.902605,0.148311 -4.19871,1.28416 -2.71663,1.580782 -2.617928,1.728576 -2.766239,0.988054 -3.388424,0.04961 -2.2959838,0.02532 -2.2195028,0.663525 -3.1889526,1.989543 0.2041219,0.306441 3.2142741,-1.556494 1.88774,-0.408244 3.1383102,0.153479 2.653068,-0.153479 3.393074,-1.071252 3.800802,-1.887741 2.780709,-1.275891 2.398303,-0.611849 3.086633,-0.12764 2.270663,0.433565 1.14825,0.535884 0.05064,0.204122 -0.458887,0.280603 -1.556494,0.688847 -1.70894,1.428337 -1.913578,2.015381 -1.224215,1.530656 -1.250053,1.14825 -1.377693,0.816488 -2.041219,0.611849 -2.754871,0.663525 -2.780709,0.637687 -2.474784,0.587044 -2.883028,1.045931 -1.4030184,0.61185 L 8.2666789,83.364937 7.297229,84.257906 6.4295817,85.176713 5.5624512,85.942041 4.2354004,86.78385 2.960026,87.293896 1.9140951,87.599821 0.99580485,88.365666 1.2252482,88.595109 2.1693766,88.263346 4.1335978,87.5745 6.097819,86.834493 7.14375,86.171484 8.189681,84.89611 l 1.3776937,-1.122929 2.0412193,-0.892452 1.989542,-0.408244 2.806547,-0.434082 3.698999,-0.510046 2.72955,-0.561206 0.612365,-0.02532 0.05116,0.305925 -0.587044,1.020609 -1.7601,2.423625 -1.403015,2.091862 -1.556494,1.9389 -1.224215,1.173572 -1.275891,0.994771 -1.734777,1.020609 -1.479497,0.815971 -1.88774,1.224732 -1.5053343,1.275374 -0.9436116,0.96945 -0.7400065,1.377694 -0.4335653,0.841809 v 0.22996 l 0.4082438,-0.178801 0.7394898,-0.790649 1.1229288,-1.428853 1.3265343,-1.122412 1.913061,-1.275375 1.862419,-0.96945 2.500106,-1.377693 2.347143,-1.607137 1.658297,-1.505335 1.683618,-2.015381 1.428853,-2.219502 0.968934,-1.224732 0.510563,-0.535368 h 0.152962 l 0.1788,0.407727 0.07648,2.295984 -0.07648,2.602425 -0.382922,2.015381 -0.535885,1.479496 -0.663008,0.841809 -0.02584,0.357601 0.434082,-0.1788 0.96945,-0.91829 0.86713,-1.556494 0.740007,-1.964222 0.05116,-2.755387 0.178284,-2.704228 0.408244,-2.500105 0.740006,-1.479497 2.780709,-3.469555 2.525427,-1.964222 2.90835,-1.352372 2.984831,-0.637687 2.219502,-0.586527 1.224732,-0.382923 0.535368,-0.178284 0.204122,0.05064 V 70.2014 l -0.79065,2.193664 -1.14825,2.347144 -1.122412,2.16886 -0.943612,1.045931 -1.19941,0.91829 -1.428336,0.943612 -1.19941,1.480013 -0.79065,1.173571 -0.740006,1.70894 -0.204122,0.740006 0.204122,0.101803 0.892968,-0.86713 0.867648,-1.709457 1.122412,-1.300696 1.555977,-1.046447 2.90835,-1.938383 1.122412,-1.122929 1.862418,-3.367237 1.326535,-2.908349 0.816487,-1.555978 1.658297,-1.352372 3.188952,-1.862418 3.086634,-1.147734 2.780709,-1.045931 1.326534,-0.791166 1.556494,-1.326534 1.09709,-0.688847 0.408244,0.02584 -0.05116,0.765328 -0.535885,3.163115 -0.586528,2.423624 -0.892968,2.500106 -1.045931,1.990059 -1.9389,2.347144 -2.194181,1.88774 -2.831869,2.500106 -2.219503,2.040702 -3.469038,3.035991 -3.188953,2.627746 -2.602425,2.015381 -3.035991,2.091862 -3.571358,2.143022 -2.295984,1.581815 -2.398303,1.913062 -1.454175,1.326534 -1.250053,0.791166 -2.423624,0.943612 -2.754871,0.587044 -1.734778,0.07648 -2.143021,0.204122 -1.811259,0.663003 -1.198894,0.71469 -0.484725,0.38241 -0.153479,0.2806 0.638204,-0.0512 1.326534,-0.53537 2.040703,-0.53588 1.479496,-0.15297 1.556494,0.0253 1.581816,0.12764 1.504817,-0.1788 1.224732,-0.28061 0.178284,0.0765 -0.02532,0.28061 -1.326534,2.06654 -1.250053,2.04122 -0.841809,1.45417 -1.122412,1.4795 -1.709456,1.63246 -1.99006,1.32705 -0.841809,0.89245 -0.127641,0.4594 0.587045,-0.22944 1.964221,-1.09709 1.837097,-1.17357 1.70894,-1.35186 1.607137,-2.2965 1.684135,-2.47427 2.704227,-3.29127 2.193665,-2.14302 2.347143,-1.861902 2.270663,-1.352372 1.632458,-0.841809 0.535885,-0.255282 0.305924,-0.05064 v 0.229444 l -0.561206,1.785937 -0.305924,1.250053 -0.306441,1.9389 -0.203606,2.653061 -0.22996,1.88774 -0.357084,1.42886 -0.765328,1.9389 -0.663525,1.07125 -1.351856,1.32653 -1.581815,1.35237 -1.351856,1.14774 -1.301212,1.17357 -0.484725,0.79117 0.05116,0.40772 0.586528,-0.12712 1.403015,-0.96945 1.377694,-1.27589 1.301212,-0.96945 0.484725,-0.30593 h 0.331763 v 0.40825 l -0.892969,2.14302 -0.637687,1.96422 -0.91829,2.16834 -0.842326,1.50534 -0.382406,0.81649 -0.05116,0.40824 0.459403,-0.22996 1.045931,-1.04593 1.122412,-1.53066 1.454175,-3.06131 1.734778,-4.18372 0.96945,-2.55127 0.458887,-1.58181 0.255281,-0.76533 0.331763,-0.12764 0.331762,0.33176 0.688847,1.6583 0.918291,1.91306 0.612365,2.5001 0.05064,1.53118 -0.204122,1.02009 0.05116,0.38292 0.433565,-0.38292 0.510563,-1.53066 0.178284,-1.7601 -0.408244,-2.04122 -0.841809,-1.76009 -0.96945,-2.16835 -0.535368,-2.80654 0.05064,-2.90835 0.459404,-2.219503 0.714168,-2.193664 0.995288,-1.734778 1.964221,-2.244824 2.040703,-1.913579 1.428853,-1.173572 0.586528,-0.510046 0.22996,0.331763 0.280603,0.91829 -0.280603,1.862419 -0.280603,1.377177 0.05064,1.938899 0.331762,1.632976 0.306441,1.377693 0.101803,1.454175 -0.05116,1.173572 -0.254764,0.96945 -0.357601,1.071252 0.05116,0.30592 0.22996,-0.0253 0.815971,-1.581812 0.587045,-1.377694 0.05064,-1.377177 -0.458887,-2.474784 -0.02584,-2.653068 0.867647,-3.291272 0.663525,-2.525428 0.943612,-1.683618 1.734778,-1.428853 2.194181,-1.632459 1.530656,-1.071769 0.790649,-0.586527 h 0.280603 l 0.07648,0.458886 -0.254765,2.041219 -0.408244,2.244825 0.05064,3.03599 0.127641,1.811259 0.587044,2.525427 0.408244,2.1177 -0.10232,1.70894 -0.740006,2.627747 -0.867131,1.479496 -1.377693,1.632972 -2.117184,1.91358 -1.480013,1.60713 -0.994771,1.58182 -0.91829,1.60714 -0.663526,1.63246 -0.433565,1.45417 -0.612366,2.16834 -0.841809,1.86242 -1.326534,1.53066 -1.377694,1.19941 -1.275374,1.25005 -0.892969,1.53066 -0.612365,1.47949 -0.127641,1.02061 0.204122,0.38241 0.229443,-0.22945 0.612366,-1.47949 1.14825,-1.86242 1.683618,-1.63298 2.040703,-1.73477 1.224731,-1.32654 0.740007,-1.68362 1.122412,-3.26543 1.071252,-2.37246 1.734778,-2.14303 1.428853,-1.37769 0.637688,-0.63769 0.408243,-0.12764 v 0.33177 l -0.408243,1.88774 -0.408244,2.85719 -0.07648,2.55126 -0.204122,3.16312 v 2.06654 l -0.101803,1.14825 -0.280603,1.37769 -0.791166,1.9389 -0.91829,1.93838 -0.535885,1.27589 -0.254765,1.35186 0.05064,1.99006 0.204122,0.51004 0.22996,-0.30592 0.229444,-2.09186 0.841809,-2.09186 1.377693,-2.32183 0.688847,-1.40301 0.79065,-2.80603 0.357084,-2.60243 -0.05064,-3.46955 0.331246,-3.08664 0.688847,-2.5771 1.301212,-3.16311 1.02061,-2.474784 0.637687,-1.83658 0.07648,-1.275891 0.280603,-0.841809 0.561206,-0.127641 0.612366,1.097091 1.454175,2.525427 1.122412,2.041217 0.96945,2.42362 0.280603,2.42363 v 2.83187 l -0.357084,1.9389 -0.637688,2.2195 -0.510563,1.50482 -0.305924,1.70945 v 1.35186 l -0.02532,1.96474 -0.382922,1.53065 -0.816488,2.32131 -0.637687,1.35237 -0.586527,0.99477 0.05064,0.38292 0.484725,-0.25528 0.96945,-1.42885 0.816488,-1.22422 0.280603,-0.99528 0.22996,-0.20413 0.280603,0.22996 0.535368,1.04593 0.791166,1.50482 0.612366,1.78594 0.254765,1.27537 0.02584,1.2759 v 1.58181 l 0.280603,0.61185 0.357084,-0.51005 0.305925,-1.99006 -0.127641,-2.27014 -0.433566,-1.48001 -0.944128,-2.50011 -0.663009,-2.16834 -0.102319,-1.7601 -0.02532,-2.27067 0.535884,-2.42362 0.586528,-1.7601 0.612365,-1.48001 0.280603,-0.40773 0.178801,-0.0512 0.663009,0.58653 2.041219,2.32182 0.86713,1.7601 0.791166,2.04122 0.357085,2.16834 0.254764,1.6583 0.408244,0.94361 0.867647,1.19941 0.714169,1.02009 0.586527,0.61237 0.306441,0.51005 0.204122,0.56172 0.254765,0.25476 v -0.86713 l -0.280603,-1.17357 -1.071252,-1.45417 -0.663526,-1.04594 -0.357084,-0.99528 -0.229443,-2.32131 -0.382406,-3.03599 -0.842326,-1.86242 -1.122412,-1.65829 -1.607137,-2.34663 -0.790649,-1.88826 -0.561206,-2.5001 -0.484725,-2.62723 -0.892969,-2.245341 -0.944128,-2.270662 -1.428337,-2.423108 -1.581816,-2.219503 -1.428853,-2.423624 -0.612366,-2.219503 -0.07648,-2.90835 0.484725,-3.188952 0.791166,-3.341915 0.943612,-2.576587 0.995288,-2.245341 1.045931,-1.479496 0.510047,-0.561206 0.255281,-0.02532 0.305925,0.203605 0.612365,2.474785 0.740007,2.398303 0.86713,2.193664 1.07177,1.632976 0.790649,1.811259 0.152962,0.969449 -0.05116,2.423625 -0.152963,2.550749 -0.101802,1.607654 0.305924,1.658296 0.816488,2.015381 0.841809,2.576587 0.229443,2.780709 -0.07648,2.729556 0.127641,1.60713 0.535885,1.5565 0.816487,1.53065 0.663009,0.73949 0.229443,0.0765 -0.458887,-1.1989 -0.714685,-2.37246 -0.152962,-2.39831 0.127641,-2.015381 0.204122,-1.250053 0.204122,-0.408244 0.280603,0.02584 1.071252,1.250053 1.071769,1.351855 0.714169,1.30122 0.484725,0.8418 0.433565,0.74001 0.255281,-0.12764 -0.05116,-1.07125 -1.071253,-2.60243 -1.683618,-2.270662 -1.9389,-2.653068 -1.020609,-2.882511 0.07648,-3.13831 0.408244,-2.397787 0.02532,-1.122412 0.280603,-0.127641 0.765328,0.740007 2.449463,1.83658 2.168343,1.734778 1.88774,2.015381 1.428854,2.168343 1.403015,2.627747 1.020609,2.908349 0.510047,2.321306 0.152962,2.34715 -0.408244,2.92488 -1.209228,2.67942 -1.280542,2.56109 -0.948263,2.32389 -0.260966,1.04334 -0.02377,2.51355 0.450619,1.96783 0.450618,1.3994 0.213424,0.80615 h 0.284737 l 0.237195,-0.64027 -0.308509,-2.06292 -0.213423,-2.03967 0.6165,-3.13004 0.948779,-2.2288 1.066601,-2.01538 0.237195,-0.18966 0.260966,0.54519 0.806153,2.37143 1.612304,2.8453 1.019576,1.68362 1.114661,1.82573 0.640271,1.82573 0.403076,1.85002 0.213424,1.51722 0.213423,0.85369 0.545187,1.13843 0.498161,0.52142 0.213423,0.0475 v -0.64027 l -0.568957,-2.25258 -0.284737,-2.32389 -0.426848,-2.27634 -0.972033,-2.79828 -1.517737,-2.79776 -1.114661,-2.15801 -0.592729,-2.34766 v -2.86908 l 0.260966,-1.20923 0.331763,-0.59272 0.521932,0.18965 0.995805,0.9958 1.873271,1.233 2.679423,1.09089 2.134236,1.30432 1.612305,1.56476 1.304313,1.99212 0.948263,2.27635 0.735355,1.68362 0.568955,0.78238 1.30431,0.97203 1.04335,0.68782 0.35553,-0.0951 -0.87746,-0.97203 -1.28003,-1.4702 -0.759121,-2.01538 -0.403076,-1.51773 -0.307992,-1.11415 -0.09508,-0.37982 0.426847,0.0713 1.849502,1.11467 1.87327,1.28002 1.11466,0.40308 0.37931,-0.14211 -0.54519,-0.64027 -1.87327,-1.37511 -2.489774,-1.49397 -1.826245,-1.16169 -1.37511,-1.32808 -1.25677,-1.04335 -1.683619,-0.87746 -2.418457,-1.16169 -1.754931,-1.20923 -1.280542,-1.3994 -1.090373,-1.68361 -0.617017,-2.370921 -0.829923,-2.82205 -0.972034,-2.347143 -1.114144,-2.608627 -0.35605,-0.568957 0.09508,-0.213424 1.8495,0.6165 2.300118,0.924491 1.920813,1.375627 1.161686,1.185457 0.877466,1.446424 0.734839,1.043347 0.450618,0.09508 0.02377,-0.687813 -1.25677,-2.276347 -1.588534,-2.134236 -2.276347,-1.754415 -2.395202,-1.043347 -2.916618,-1.043348 -2.370915,-1.351855 -2.442745,-1.8495 -1.8495,-1.87327 -2.134236,-2.418457 -1.873271,-3.177584 -0.853178,-2.869076 -0.711584,-4.007507 -0.331763,-3.461804 -0.166398,-3.509347 0.237195,-0.403076 0.97255,0.426331 2.726449,2.632397 2.34766,1.70739 2.228805,1.564762 1.58905,1.778703 1.043347,1.280025 0.213424,1.185974 -0.142627,2.869076 -0.02326,1.825728 0.307992,1.398881 0.711584,1.659847 0.568958,0.735356 0.213424,-0.07131 -0.379305,-1.446423 -0.237195,-2.418457 0.118339,-2.347661 0.403076,-0.972033 0.403076,-0.07131 0.09508,0.260966 1.161686,2.062923 1.731161,2.300118 2.395202,2.466 2.869076,2.039152 2.655652,1.541508 0.925008,0.687296 0.782381,1.683618 1.067118,2.987932 0.545187,2.371431 0.165881,2.370915 0.592729,2.015898 1.659847,2.821535 1.49396,1.63607 1.99213,1.68362 2.08669,2.2288 1.16169,2.0159 0.73484,1.82573 0.59324,0.75861 0.42685,0.14263 0.047,-0.82993 -1.32757,-3.0117 -1.20923,-2.15801 -1.80247,-2.13372 -1.99161,-1.87327 -1.764234,-2.222082 -0.871264,-2.443261 -0.358118,-3.065446 -0.420129,-2.80138 -0.466639,-2.303218 -0.171049,-0.498161 0.202055,-0.202055 0.855762,0.202055 2.583306,1.089339 1.79007,1.011825 2.13165,1.789554 2.86391,3.206006 1.61799,2.318722 2.00763,3.221509 1.52548,2.396233 1.43144,1.77405 1.9296,1.69654 1.71204,1.40043 1.38493,0.87178 0.84026,0.66921 0.37362,0.12454 v -0.24908 l -0.79375,-0.90278 -1.49397,-1.22939 -2.45876,-2.30322 -1.71204,-2.2257 -1.83607,-3.065444 -0.54467,-1.229382 -0.031,-0.529167 0.28008,-0.06253 0.98031,0.358117 3.82819,0.918291 2.92592,0.669209 1.74304,0.824756 0.9803,0.59118 h 0.42013 v -0.326596 l -1.10484,-0.824756 -1.69654,-0.91829 -2.64531,-1.011825 -2.66134,-0.793233 -2.64532,-0.996322 -1.71204,-1.338419 -2.06964,-2.178679 -1.74304,-2.100647 -1.572,-1.603003 -2.11615,-1.509468 -3.299537,-1.883089 -3.143477,-1.509469 -2.069641,-0.871781 -2.645833,-1.524972 -2.178679,-1.69602 -1.555977,-1.571998 -1.883089,-2.536796 -1.649512,-2.925402 -1.182874,-1.790072 -0.995805,-1.182357 -1.011824,-0.949296 0.03101,-0.622701 1.04283,-0.140043 3.377055,0.591178 4.092773,0.965316 1.914096,0.66921 2.163175,1.151351 1.774052,1.275891 2.521293,2.396753 1.898594,1.681034 2.47427,1.805058 1.97662,0.886768 1.41594,0.467154 1.10484,0.933794 1.52549,1.665014 1.02681,1.976624 1.33842,2.287715 1.24488,1.696021 1.41645,1.353922 1.64952,0.980302 1.32291,0.607198 0.43563,0.0155 v -0.233577 l -1.46296,-0.995805 -1.38492,-1.136365 -1.60301,-2.054138 -1.9606,-3.906221 -1.04283,-1.820561 -0.15555,-0.66921 0.23358,-0.155546 3.06545,0.746725 2.92592,1.105358 1.32291,0.886768 2.2872,2.038635 2.49029,2.676839 2.5523,2.443262 2.02313,1.307414 2.41174,1.151351 1.52549,0.887284 0.62218,0.155546 0.24908,-0.109037 -1.36942,-1.027328 -3.12798,-1.867069 -1.29191,-0.871781 -1.78955,-2.194182 -1.9141,-2.738851 -1.77405,-1.83658 -1.02733,-0.871265 v -0.389123 l 2.10117,-0.06253 2.17867,0.171566 3.25252,0.949296 2.22519,0.66921 1.49396,0.09302 0.79375,-0.171049 -1.66501,-0.435632 -2.30322,-0.855762 -2.67684,-0.933793 -2.20969,-0.513663 -3.25251,-0.171049 -2.25671,-0.311609 -3.79718,-1.08934 -3.54811,-0.855761 -2.38125,-0.575676 -2.95641,-1.151867 -2.27221,-1.431438 -1.80506,-1.992126 -0.809253,-1.167371 0.108521,-0.373103 1.696542,-0.109038 3.90622,-0.513663 3.17448,-0.653707 2.92592,-0.03101 1.71153,0.498161 2.83238,1.400431 1.572,0.715719 1.82056,0.280086 0.9648,-0.171049 -0.85576,-0.404627 -1.572,-0.326595 -1.49397,-0.66921 -2.5833,-1.5875 -1.88309,-0.731221 -2.76986,-0.296106 -3.96823,0.24908 -2.67684,0.327112 -3.595132,-0.0155 -1.929598,-0.389123 -2.412256,-1.182874 -2.303219,-1.182873 -2.147155,-0.964799 -2.707845,-0.79375 -3.937228,-0.66921 -3.065963,-0.66921 -2.552299,-1.166854 -2.116666,-1.493965 -1.555978,-2.241207 -1.244885,-2.78536 -0.887284,-2.599325 -0.357601,-2.925402 -0.07803,-4.466394 0.122474,-3.708301 0.08615,-3.469363 0.01668,-3.798411 0.077,-5.488037 -0.309025,-5.101497 -0.38654,-4.173906 0.135075,-5.781356 0.251467,-6.4191187 -0.232028,-6.5141917 z"
       sodipodi:nodetypes="ccccccccccccccccccccccccccccccccccccccccccccccccccccccccccccccccccccccccccccccccccccccccccccccccccccccccccccccccccccccccccccccccccccccccccccccccccccccccccccccccccccccccccccccccccccccccccccccccccccccccccccccccccccccccccccccccccccccccccccccccccccccccccccccccccccccccccccccccccccccccccccccccccccccccccccccccccccccccccccccccccccccccccccccccccccccccccccccccccccccccccccccccccccccccccccccccccccccccccccccccccccccccccccccccccccccccccccccccccccccccccccccccccccccccccccccccccccccccccccccccccccccccccccccccccccccccccccccccccccccccccccccccccccccccccccccccccccccccccccccccccccccccccccccccccccccccccccccccccccccccccccccccccccccccccccccccccccccccccccccccccccccccccccccccccccccccccccccccccccccccccccccccccccccccccccccccccccccccccccccccccccccccccccccccccccccccccccccccccccccccccccccccccccccccccccccccccccccccccccccccccccccccccccccccccccc" /></g></svg>
